<svg width="231" height="227" viewBox="0 0 231 227" fill="none" xmlns="http://www.w3.org/2000/svg">
<path d="M99.1131 102.581H0.130371V0.548828H99.1131V17.1141H50.8726C31.995 17.1141 16.6956 32.4135 16.6956 51.291V51.8492C16.6956 70.7268 31.995 86.0262 50.8726 86.0262H99.1131V102.591V102.581Z" fill="black"/>
<path d="M144.882 55.4473L195.026 55.4772C205.382 55.4772 213.784 47.085 213.784 36.7292V35.8621C213.784 25.5063 205.392 17.1141 195.036 17.1141H144.872V55.4473H144.882ZM144.882 102.581H128.316V0.548828H230.349V72.0624L144.882 72.0125V102.581Z" fill="black"/>
<path d="M16.6956 140.875V154.888H36.1712C39.869 154.868 42.8691 151.868 42.8691 148.17V147.572C42.8691 143.875 39.869 140.875 36.1712 140.875H16.6956ZM16.6956 209.787H66.6803C77.1258 209.787 85.5978 201.315 85.5978 190.869V190.341C85.5978 179.886 77.1158 171.414 66.6604 171.424H59.4243V171.513H42.8591V171.434L16.6856 171.453V209.787H16.6956ZM102.163 226.352H0.130371V124.319H59.4243V154.868L102.163 154.838V226.352Z" fill="black"/>
<path d="M187.012 124.319H127.668V226.352H144.234V153.553C144.234 146.556 149.905 140.875 156.912 140.875H157.779C164.776 140.875 170.457 146.546 170.457 153.553V226.352H187.022V153.553C187.022 146.556 192.693 140.875 199.7 140.875H200.567C207.564 140.875 213.245 146.546 213.245 153.553V226.352H229.811V124.319H187.032H187.012Z" fill="black"/>
</svg>
