<svg width="691" height="353" viewBox="0 0 691 353" fill="none" xmlns="http://www.w3.org/2000/svg">
<g clip-path="url(#clip0_420_280)">
<path d="M74.67 74.73V245.78C74.67 277.67 78.67 297.15 98.36 303.3C100.65 293.13 100.64 281.3 100.63 271.3V269.23V244.34V166.58L113.28 167.09H114.11C127.36 167.09 170.62 163.64 170.62 119.3C170.62 75.98 128.27 74.72 123.44 74.72L74.67 74.73ZM24.36 24.35V269.23C24.36 307.9 30.63 328.85 63.75 328.85C73.51 328.85 80.23 327.01 84.99 324.27C50.32 309 50.31 265.86 50.31 245.78V50.39H123.36C148.18 50.39 194.96 64.8 194.96 119.31C194.96 167.44 159.37 187.49 124.96 190.91V244.35V269.25V271.25C124.96 281.43 124.96 293.25 122.88 304.78C130.37 303.71 136.08 301.14 140.21 297C151 286.27 151 265 151 247.85V245.78L151.08 211.27L160.44 209.05C162.92 208.46 222.44 193.05 222.44 118.7C222.44 36.61 163.33 24.35 128.11 24.35H24.36ZM63.75 353.2C0 353.2 0 294.36 0 269.23V0H128C155.86 0 246.7 8.56 246.7 118.7C246.7 167.54 224.92 195.96 206.64 211.19C197.252 218.993 186.674 225.242 175.31 229.7V245.81V247.81C175.31 268.27 175.36 296.32 157.47 314.21C147.19 324.51 132.59 329.73 114.07 329.73H113.55C105.69 341.73 91.03 353.18 63.77 353.18" fill="#1E171A"/>
<path d="M295.88 150.74V77.4602H319.33C338.07 77.4602 354.92 87.8202 354.92 114.1C354.92 144.78 335.56 150.74 320.38 150.74H295.88ZM318.28 91.5902H310V136.59H319.32C333.32 136.59 340.99 130.2 340.99 114.08C341 99.4502 331.89 91.5902 318.28 91.5902Z" fill="#1D1D1B"/>
<path d="M376.81 77.4602H420.67V91.5902H390.94V106.67H417.32V120.8H390.94V136.61H421.72V150.74H376.81V77.4602ZM385.29 72.6402V63.4302L415.65 54.4302V65.9402L385.29 72.6402Z" fill="#1D1D1B"/>
<path d="M459.83 75.4702L482.23 118.71L504.32 75.3702L522.12 150.74H507.78L500.35 116.41L482.23 152.84L463.49 116.41L456 150.74H441.61L459.83 75.4702Z" fill="#1D1D1B"/>
<path d="M539.4 114.1C539.4 93.2702 555.1 76.2002 574.26 76.2002C593.42 76.2002 609.12 93.2702 609.12 114.1C609.12 134.93 593.42 152 574.26 152C555.1 152 539.4 134.94 539.4 114.1ZM574.26 90.0002C562.54 90.0002 553.26 100.68 553.26 114.08C553.26 127.48 562.58 138.16 574.26 138.16C585.94 138.16 595.26 127.48 595.26 114.08C595.26 100.68 586 90.0002 574.26 90.0002Z" fill="#1D1D1B"/>
<path d="M653.2 76.2002C662.41 76.2002 671 79.8702 676.34 86.5702L667 96.5102C663.44 91.5902 656.74 90.3402 653.18 90.3402C647.11 90.3402 643.44 91.9102 643.24 96.0902C642.92 108.55 678.73 101.64 678.73 130.22C678.73 144.15 666.16 152 653.18 152C640.93 152 632.24 147.5 626.8 139.44L638.21 130.33C643.03 135.04 647.11 137.87 653.21 137.87C660.64 137.87 664.62 134.41 664.62 129.7C664.62 115.7 629.13 123.31 629.13 96.4102C629.12 84.1602 639.17 76.2002 653.2 76.2002Z" fill="#1D1D1B"/>
<path d="M305.668 204.827L320.006 245.429L334.143 204.76L345.533 253H342.652L333.607 215.145L320.006 254.34L306.204 215.145L296.891 253H294.01L305.668 204.827Z" fill="#1E171A"/>
<path d="M375.02 204.76L394.986 253H391.502L387.817 244.022H362.089L358.471 253H354.92L375.02 204.76ZM363.362 241.007H386.611L375.02 212.599L363.362 241.007Z" fill="#1E171A"/>
<path d="M423.649 209.115H410.048V230.287H423.649C430.952 230.287 436.58 227.473 436.58 219.835C436.58 212.197 430.952 209.115 423.649 209.115ZM407.033 253V206.1H424.52C432.493 206.1 439.595 210.455 439.595 219.835C439.595 228.009 433.431 231.694 429.545 232.431L437.92 253H434.704L426.396 233.302H410.048V253H407.033Z" fill="#1E171A"/>
<path d="M466.525 205.296C472.019 205.296 477.044 207.306 480.461 210.991L478.116 213.001C475.235 210.254 472.823 208.311 466.525 208.311C461.433 208.311 454.331 210.924 454.13 216.887C453.795 227.942 482.873 224.592 482.873 240.873C482.873 249.784 474.833 253.804 466.525 253.804C458.686 253.804 453.125 250.923 449.641 245.764L452.321 243.955C454.733 247.305 458.619 250.789 466.525 250.789C474.297 250.789 479.858 247.573 479.858 241.543C479.858 226.803 451.115 231.158 451.115 217.222C451.115 210.388 457.547 205.296 466.525 205.296Z" fill="#1E171A"/>
<path d="M496.3 206.1H524.373V209.115H499.315V227.808H522.229V230.823H499.315V249.985H525.043V253H496.3V206.1Z" fill="#1E171A"/>
<path d="M541.153 206.1H544.168V253H541.153V206.1Z" fill="#1E171A"/>
<path d="M561.227 206.1H564.242V249.985H589.166V253H561.227V206.1Z" fill="#1E171A"/>
<path d="M602.589 206.1H605.604V249.985H630.528V253H602.589V206.1Z" fill="#1E171A"/>
<path d="M643.951 206.1H672.024V209.115H646.966V227.808H669.88V230.823H646.966V249.985H672.694V253H643.951V206.1Z" fill="#1E171A"/>
</g>
<defs>
<clipPath id="clip0_420_280">
<rect width="691" height="353" fill="white"/>
</clipPath>
</defs>
</svg>
